# Blender 3.5.0
# www.blender.org
mtllib float_R_arm.mtl
o Cube.001
v -0.426339 0.289150 0.241355
v -1.179382 -0.741298 0.266952
v -0.442888 0.289150 -0.245483
v -1.195930 -0.741298 -0.219886
v -0.011370 -0.014456 0.227250
v -0.764412 -1.044905 0.252847
v -0.027918 -0.014456 -0.259588
v -0.780961 -1.044905 -0.233991
vn 0.5899 0.8072 -0.0201
vn -0.0340 -0.0000 -0.9994
vn 0.8068 -0.5903 -0.0274
vn -0.5899 -0.8072 0.0201
vn -0.8068 0.5902 0.0274
vn 0.0340 -0.0000 0.9994
vt 0.625000 0.500000
vt 0.375000 0.500000
vt 0.625000 0.750000
vt 0.375000 0.750000
vt 0.875000 0.500000
vt 0.625000 0.250000
vt 0.125000 0.500000
vt 0.375000 0.250000
vt 0.875000 0.750000
vt 0.625000 1.000000
vt 0.625000 0.000000
vt 0.375000 1.000000
vt 0.375000 0.000000
vt 0.125000 0.750000
s 0
usemtl Material.003
f 1/1/1 5/5/1 7/9/1 3/3/1
f 4/4/2 3/3/2 7/10/2 8/12/2
f 8/13/3 7/11/3 5/6/3 6/8/3
f 6/7/4 2/2/4 4/4/4 8/14/4
f 2/2/5 1/1/5 3/3/5 4/4/5
f 6/8/6 5/6/6 1/1/6 2/2/6
